<svg version="1.1" id="icon" xmlns="http://www.w3.org/2000/svg" xmlns:xlink="http://www.w3.org/1999/xlink" x="0px" y="0px"
	 width="128px" height="128px" viewBox="-32 -32 128 128" >
<g>
	<path id="smiddle" fill="#F5F5F5" stroke="#1478D8" stroke-width="3" stroke-miterlimit="10" d="M39,49.9c0.1,4.2-2.2,6.9-5.4,7.3
		c-2.9,0.4-5.9-1.6-6.6-4.6c-0.2-0.8-0.2-1.5-0.3-2.4c-0.4-4.2-4-7.7-8.3-7.8c-3.2-0.1-6.2-0.4-9.1-1.8c-7.8-4-11.9-10.3-12-19.1
		c0-3.3,2.7-6.1,6-6.2c3.3-0.1,6.1,2.6,6.2,6c0.1,2.1,0.7,4.1,2,5.8c1.6,2,3.8,3,6.3,3c3.7,0,7.2,0.7,10.4,2.6
		C35,36.9,38.8,42.8,39,49.9z"/>
	<path id="stop" fill="#F5F5F5" stroke="#1478D8" stroke-width="3" stroke-miterlimit="10" d="M10.8,57.2c-2.4,0-4.8,0-7.3,0
		c-2.8,0-5.3-2-5.9-4.6c-0.7-2.9,0.6-5.7,3.2-7C1.7,45.3,2.7,45,3.6,45c4.8-0.1,9.6-0.1,14.4,0c3.8,0,6.4,2.6,6.3,6.3
		c0,3.4-2.8,6.1-6.4,6.1C15.6,57.3,13.2,57.2,10.8,57.2z"/>
	<path id="sbottom" fill="#F5F5F5" stroke="#1478D8" stroke-width="3" stroke-miterlimit="10" d="M25.5,27.7c-2.4,0-4.8,0-7.2,0
		c-3.5,0-6.1-2.5-6.2-5.9c-0.1-3.5,2.5-6.4,6-6.5c5-0.1,9.9-0.1,14.9,0c3.3,0.1,5.9,2.6,6.1,5.7c0.2,3.2-1.9,6-4.9,6.5
		c-0.5,0.1-1,0.1-1.4,0.1C30.3,27.7,28,27.7,25.5,27.7z"/>
</g>
<rect x="-44.5" y="16.7" fill="none" width="155" height="42.1"/>
<text transform="matrix(1 0 0 1 -32.3857 49.8896)"><tspan x="0" y="0" fill="#F7468D" font-family="'Consolas-Bold'" font-size="48.1034">&lt;</tspan><tspan x="26.4" y="0" fill="#F7468D" font-family="'Consolas-Bold'" font-size="13.3621">       </tspan><tspan x="77.9" y="0" fill="#F7468D" font-family="'Consolas-Bold'" font-size="48.1034">/&gt;</tspan></text>
</svg>
